<mxfile host="65bd71144e" modified="2021-03-09T01:12:25.385Z" agent="5.0 (X11; Linux x86_64) AppleWebKit/537.36 (KHTML, like Gecko) Code/1.51.1 Chrome/83.0.4103.122 Electron/9.3.3 Safari/537.36" etag="4H7Jl_GQj7r8KPYfvNdU" version="14.2.4" type="embed">
    <diagram id="1XTyoEW7qzfLBBSgb7DO" name="Page-1">
        <mxGraphModel dx="614" dy="332" grid="1" gridSize="10" guides="1" tooltips="1" connect="1" arrows="1" fold="1" page="1" pageScale="1" pageWidth="850" pageHeight="1100" math="0" shadow="0">
            <root>
                <mxCell id="0"/>
                <mxCell id="1" parent="0"/>
                <mxCell id="5" value="Room1" style="rounded=0;whiteSpace=wrap;html=1;fillColor=#0050ef;strokeColor=#001DBC;fontColor=#ffffff;" parent="1" vertex="1">
                    <mxGeometry x="2" y="168" width="120" height="70" as="geometry"/>
                </mxCell>
                <mxCell id="6" value="Room2" style="rounded=0;whiteSpace=wrap;html=1;fillColor=#6a00ff;strokeColor=#3700CC;fontColor=#ffffff;" parent="1" vertex="1">
                    <mxGeometry x="2" y="85" width="120" height="80" as="geometry"/>
                </mxCell>
                <mxCell id="room_three" value="Room3" style="rounded=0;whiteSpace=wrap;html=1;fillColor=#1ba1e2;strokeColor=#006EAF;fontColor=#ffffff;" parent="1" vertex="1">
                    <mxGeometry x="2" y="2" width="120" height="80" as="geometry"/>
                </mxCell>
                <object label="robot" movable="true" speed="5" type="robot" id="robot">
                    <mxCell style="ellipse;whiteSpace=wrap;html=1;aspect=fixed;" parent="1" vertex="1">
                        <mxGeometry x="405" y="208" width="30" height="30" as="geometry"/>
                    </mxCell>
                </object>
                <object label="" type="POI" tag="2" id="10">
                    <mxCell style="ellipse;whiteSpace=wrap;html=1;aspect=fixed;fillColor=#e3c800;strokeColor=#B09500;fontColor=#ffffff;" parent="1" vertex="1">
                        <mxGeometry x="390" y="217" width="10" height="10" as="geometry"/>
                    </mxCell>
                </object>
                <object label="" type="POI" tag="3" id="11">
                    <mxCell style="ellipse;whiteSpace=wrap;html=1;aspect=fixed;fillColor=#e3c800;strokeColor=#B09500;fontColor=#ffffff;" parent="1" vertex="1">
                        <mxGeometry x="415" y="160" width="10" height="10" as="geometry"/>
                    </mxCell>
                </object>
                <object label="" type="POI" tag="5" id="13">
                    <mxCell style="ellipse;whiteSpace=wrap;html=1;aspect=fixed;fillColor=#e3c800;strokeColor=#B09500;fontColor=#ffffff;" parent="1" vertex="1">
                        <mxGeometry x="415" y="84" width="10" height="10" as="geometry"/>
                    </mxCell>
                </object>
                <object label="" type="POI" tag="7" id="15">
                    <mxCell style="ellipse;whiteSpace=wrap;html=1;aspect=fixed;fillColor=#e3c800;strokeColor=#B09500;fontColor=#ffffff;" parent="1" vertex="1">
                        <mxGeometry x="380" y="40" width="10" height="10" as="geometry"/>
                    </mxCell>
                </object>
                <object label="" type="POI" tag="9" id="17">
                    <mxCell style="ellipse;whiteSpace=wrap;html=1;aspect=fixed;fillColor=#e3c800;strokeColor=#B09500;fontColor=#ffffff;" parent="1" vertex="1">
                        <mxGeometry x="280" y="40" width="10" height="10" as="geometry"/>
                    </mxCell>
                </object>
                <object label="" type="POI" tag="11" id="19">
                    <mxCell style="ellipse;whiteSpace=wrap;html=1;aspect=fixed;fillColor=#e3c800;strokeColor=#B09500;fontColor=#ffffff;" parent="1" vertex="1">
                        <mxGeometry x="180" y="40" width="10" height="10" as="geometry"/>
                    </mxCell>
                </object>
                <object label="" type="POI" tag="13" id="21">
                    <mxCell style="ellipse;whiteSpace=wrap;html=1;aspect=fixed;fillColor=#e3c800;strokeColor=#B09500;fontColor=#ffffff;" parent="1" vertex="1">
                        <mxGeometry x="319" y="218" width="10" height="10" as="geometry"/>
                    </mxCell>
                </object>
                <object label="" type="POI" tag="15" id="24">
                    <mxCell style="ellipse;whiteSpace=wrap;html=1;aspect=fixed;fillColor=#e3c800;strokeColor=#B09500;fontColor=#ffffff;" parent="1" vertex="1">
                        <mxGeometry x="237" y="218" width="10" height="10" as="geometry"/>
                    </mxCell>
                </object>
                <object label="" type="POI" tag="17" id="26">
                    <mxCell style="ellipse;whiteSpace=wrap;html=1;aspect=fixed;fillColor=#e3c800;strokeColor=#B09500;fontColor=#ffffff;" parent="1" vertex="1">
                        <mxGeometry x="140" y="217" width="10" height="10" as="geometry"/>
                    </mxCell>
                </object>
                <object label="" type="POI" tag="18" id="27">
                    <mxCell style="ellipse;whiteSpace=wrap;html=1;aspect=fixed;fillColor=#e3c800;strokeColor=#B09500;fontColor=#ffffff;" parent="1" vertex="1">
                        <mxGeometry x="360" y="120" width="10" height="10" as="geometry"/>
                    </mxCell>
                </object>
                <object label="" type="POI" tag="20" id="29">
                    <mxCell style="ellipse;whiteSpace=wrap;html=1;aspect=fixed;fillColor=#e3c800;strokeColor=#B09500;fontColor=#ffffff;" parent="1" vertex="1">
                        <mxGeometry x="247" y="121" width="10" height="10" as="geometry"/>
                    </mxCell>
                </object>
                <object label="" type="POI" tag="22" id="31">
                    <mxCell style="ellipse;whiteSpace=wrap;html=1;aspect=fixed;fillColor=#e3c800;strokeColor=#B09500;fontColor=#ffffff;" parent="1" vertex="1">
                        <mxGeometry x="140" y="121" width="10" height="10" as="geometry"/>
                    </mxCell>
                </object>
                <object label="" type="map-path" id="32">
                    <mxCell style="endArrow=classic;html=1;" parent="1" edge="1">
                        <mxGeometry width="50" height="50" relative="1" as="geometry">
                            <mxPoint x="400" y="210" as="sourcePoint"/>
                            <mxPoint x="400" y="50" as="targetPoint"/>
                        </mxGeometry>
                    </mxCell>
                </object>
                <object label="" type="map-path" id="33">
                    <mxCell style="endArrow=classic;html=1;" parent="1" edge="1">
                        <mxGeometry width="50" height="50" relative="1" as="geometry">
                            <mxPoint x="410" y="50" as="sourcePoint"/>
                            <mxPoint x="130" y="50" as="targetPoint"/>
                        </mxGeometry>
                    </mxCell>
                </object>
                <object label="" type="map-path" id="34">
                    <mxCell style="endArrow=classic;html=1;" parent="1" edge="1">
                        <mxGeometry width="50" height="50" relative="1" as="geometry">
                            <mxPoint x="400" y="210" as="sourcePoint"/>
                            <mxPoint x="130" y="210" as="targetPoint"/>
                        </mxGeometry>
                    </mxCell>
                </object>
                <object label="" type="map-path" id="35">
                    <mxCell style="endArrow=classic;html=1;" parent="1" edge="1">
                        <mxGeometry width="50" height="50" relative="1" as="geometry">
                            <mxPoint x="410" y="130" as="sourcePoint"/>
                            <mxPoint x="130" y="130" as="targetPoint"/>
                        </mxGeometry>
                    </mxCell>
                </object>
            </root>
        </mxGraphModel>
    </diagram>
</mxfile>